<?xml version="1.0" encoding="UTF-8" standalone="no"?>
<svg
   xmlns:dc="http://purl.org/dc/elements/1.1/"
   xmlns:cc="http://creativecommons.org/ns#"
   xmlns:rdf="http://www.w3.org/1999/02/22-rdf-syntax-ns#"
   xmlns:svg="http://www.w3.org/2000/svg"
   xmlns="http://www.w3.org/2000/svg"
   xmlns:sodipodi="http://sodipodi.sourceforge.net/DTD/sodipodi-0.dtd"
   xmlns:inkscape="http://www.inkscape.org/namespaces/inkscape"
   version="1.1"
   xml:space="preserve"
   viewBox="0 0 364.74946 221.84794"
   height="221.84793"
   width="364.74945"
   y="0px"
   x="0px"
   id="Layer_1"
   sodipodi:docname="socrates.svg"
   inkscape:version="0.92.2 5c3e80d, 2017-08-06"><sodipodi:namedview
     pagecolor="#ffffff"
     bordercolor="#666666"
     borderopacity="1"
     objecttolerance="10"
     gridtolerance="10"
     guidetolerance="10"
     inkscape:pageopacity="0"
     inkscape:pageshadow="2"
     inkscape:window-width="1237"
     inkscape:window-height="678"
     id="namedview455"
     showgrid="false"
     inkscape:zoom="1.9008515"
     inkscape:cx="130.52216"
     inkscape:cy="121.30055"
     inkscape:window-x="0"
     inkscape:window-y="0"
     inkscape:window-maximized="0"
     inkscape:current-layer="Layer_1" /><metadata
     id="metadata700"><rdf:RDF><cc:Work
         rdf:about=""><dc:format>image/svg+xml</dc:format><dc:type
           rdf:resource="http://purl.org/dc/dcmitype/StillImage" /><dc:title /></cc:Work></rdf:RDF></metadata><defs
     id="defs698" /><g
     id="g411"
     transform="translate(121.15073,27.1294)"><path
       id="path383"
       d="m 131.595,119.097 c -3.855,-7.753 -4.103,-14.81 -12.378,-17.963 -5.977,-2.276 -15.584,-1.727 -21.813,-3.238 -6.228,-1.512 -12.553,-4.104 -16.358,-9.107 -8.32,0.439 -16.532,1.133 -24.854,1.573 L 54.8,95.888 53.408,90.362 c -8.321,-0.44 -16.533,-1.134 -24.854,-1.573 -3.805,5.003 -10.131,7.596 -16.359,9.107 -5.395,1.31 -10.976,1.993 -16.256,3.631 0,0 -18.479,9.899 -17.907,15.851 0.497,5.174 -0.013,24.354 -0.013,24.354 h 155.786 c 0.379,-8.2 1.276,-15.627 -2.21,-22.635 z"
       inkscape:connector-curvature="0"
       style="fill:#dba698" /><g
       id="g409"><path
         id="path385"
         d="m 18.035,42.078 c 2.409,-8.087 7.484,-13.999 9.893,-22.086 1.056,-3.544 2.18,-7.207 4.823,-10.058 2.671,-2.879 6.671,-4.643 10.795,-5.553 3.166,-0.698 6.43,-0.937 9.699,-1.066 V 3.277 c 0.175,0.006 0.351,0.012 0.525,0.019 0.175,-0.006 0.35,-0.013 0.525,-0.019 v 0.039 c 3.27,0.13 6.533,0.368 9.699,1.066 4.125,0.91 8.125,2.674 10.796,5.553 2.644,2.851 3.766,6.513 4.822,10.058 2.41,8.087 4.819,16.174 7.229,24.261 1.429,4.793 2.868,9.672 2.64,14.62 -0.322,7.015 -3.951,13.553 -7.508,19.857 -2.006,3.555 -4.07,7.181 -7.299,9.975 -5.237,4.533 -13.188,7.543 -20.38,7.877 v 0.031 c -0.175,-0.002 -0.35,-0.007 -0.525,-0.012 -0.175,0.005 -0.351,0.01 -0.525,0.012 V 96.583 C 46.052,96.249 38.101,93.239 32.864,88.706 29.635,85.912 27.572,82.286 25.565,78.731 22.008,72.427 18.378,65.889 18.057,58.874 17.83,53.925 16.606,46.872 18.035,42.078 Z"
         inkscape:connector-curvature="0"
         style="fill:#dba698" /><g
         id="g397"><path
           id="path387"
           d="m 8.273,41.604 c -0.701,3.119 0.539,6.596 2.295,9.129 -0.312,1.756 -0.361,3.519 -0.149,5.29 0.322,2.675 1.259,5.281 2.803,7.498 -0.98,1.621 -1.294,3.361 -0.942,5.221 0.781,3.738 2.414,3.265 2.441,6.962 1.251,1.658 1.118,3.232 -0.396,4.726 -1.29,4.65 2.002,9.095 4.728,12.479 -1.28,4.702 0.564,9.551 4.098,12.753 2.292,2.078 5.188,3.531 8.249,4.034 -0.557,1.966 -1.054,4.12 -0.09,5.921 5.958,11.133 -6.649,18.746 -7.809,19.883 13.079,3.334 23.25,-12.75 39.917,-6.439 -2.649,-2.596 7.15,-6.14 8.2,-7.022 1.99,-1.673 3.495,-3.879 4.138,-6.421 1.19,-4.694 -2.023,-4.845 2.939,-6.746 5.451,-2.087 9.907,-7.17 9.723,-13.233 -0.164,-5.404 6.007,-9.136 4.322,-15.208 -0.619,-2.233 0.123,-5.172 -1.106,-7.115 2.271,-1.738 3.71,-4.333 3.184,-7.251 -0.901,-4.994 2.71,-9.565 1.679,-15.33 C 99.55,46.326 100.24,39.884 95.195,36.694 95.415,31.798 93.827,26.918 90.819,23.055 87.77,19.145 84.192,16.911 82.527,11.973 81.628,9.305 78.94,7.712 76.261,7.401 76.067,4.768 72.535,3.862 70.526,3.655 61.688,2.744 53.941,-1.01 44.599,1.128 41.878,1.75 31.064,3.868 30.804,7.4 c -2.68,0.311 -5.366,1.904 -6.266,4.572 -1.011,2.999 -2.523,3.249 -3.846,6.113 -2.091,4.53 -6.831,6.92 -8.27,12.877 -0.792,3.279 0.073,4.681 -2.21,7.089 -0.966,1.011 -1.612,2.195 -1.939,3.553 -0.24,1.068 0.436,-1.951 0,0 z m 38.615,39.074 c -1.722,-1.286 -3.641,-2.125 -5.756,-2.515 1.26,-0.851 1.982,-2.026 2.167,-3.527 1.583,0.167 2.753,-0.438 3.51,-1.815 0.708,0.298 6.276,-1.057 6.724,-1.228 3.089,1.18 5.203,1.176 8.097,2.676 2.648,1.375 1.785,2.115 4.303,3.895 -7.292,1.253 -11.308,10.086 -19.045,2.514 -1.491,-1.46 0.059,0.043 0,0 z M 20.287,57.655 c -2.419,-4.612 0.125,-3.47 2.585,-4.467 C 15.5,39.75 27.034,33.087 29.097,28.971 30.228,26.715 31.329,23.695 29.6,21.369 30.656,21.194 31.345,20.6 31.67,19.587 32.664,16.124 30.243,14.816 33.495,11.86 35.812,9.749 37.405,10.241 39.81,8.434 43.579,5.604 53.48,10 53.48,10 c 2.433,1.625 6,-2.916 8.837,-2.919 4.928,-0.007 2.932,1.082 7.035,2.448 6.423,2.139 4.521,4.756 6.042,10.06 1.121,3.917 1.57,-1.094 1.186,4.205 -0.195,2.7 1.379,5.4 2.787,7.555 2.205,3.373 5.951,8.375 2.637,12.369 0.918,0.069 1.675,-0.243 2.271,-0.937 2.619,3.102 2.702,7.369 -0.082,10.409 2.46,0.998 5.004,-0.146 2.585,4.467 -1.27,2.423 -2.998,4.847 -0.249,7.23 -4.384,-1.02 -4.138,4.612 -3.216,7.022 -2.832,-4.563 -6.747,2.248 -5.895,5.222 -0.658,-0.587 -1.419,-0.785 -2.281,-0.596 -0.205,-1.605 -0.907,-2.898 -2.105,-3.879 -2.103,-1.452 -1.83,-4.406 -4.679,-5.524 -4.059,-1.593 -10.004,-3.726 -14.82,-2.885 -4.36,-0.761 -13.707,0.839 -16.61,4.125 -0.855,1.097 -1.323,2.34 -1.402,3.728 -1.105,0.165 -1.952,0.721 -2.539,1.668 -2.89,4.678 -0.736,0.76 -3.334,3.362 0.853,-2.976 -3.062,-9.786 -5.896,-5.222 0.922,-2.41 1.169,-8.042 -3.215,-7.022 2.749,-2.386 1.017,-4.806 -0.25,-7.231 -0.782,-1.491 0.442,0.845 0,0 z"
           inkscape:connector-curvature="0"
           style="fill:#e2e9f6" /><path
           id="path389"
           d="m 39.219,44.685 c 5.755,-0.024 8.736,4.7 0.902,4.992 -8.064,0.299 -9.619,-4.953 -0.902,-4.992 2.587,-0.011 -2.527,0.011 0,0 z"
           inkscape:connector-curvature="0"
           style="fill:#e2e9f6" /><path
           id="path391"
           d="m 35.719,34.818 c 1.393,-0.186 17.43,0.005 13.842,4.748 -3.451,4.562 -15.635,-5.724 -20.745,2.512 -1.766,-4.288 3.711,-6.834 6.903,-7.26 2.042,-0.272 -2.044,0.273 0,0 z"
           inkscape:connector-curvature="0"
           style="fill:#e2e9f6" /><path
           id="path393"
           d="m 67.845,44.685 c 5.474,0.024 9.796,3.841 1.739,4.873 -7.997,1.023 -10.31,-4.909 -1.739,-4.873 2.527,0.011 -2.587,-0.011 0,0 z"
           inkscape:connector-curvature="0"
           style="fill:#e2e9f6" /><path
           id="path395"
           d="m 65.161,34.809 c 3.687,-0.244 16.042,0.099 13.087,7.27 -3.409,-5.496 -11.525,-3.636 -16.48,-2.152 -1.215,0.364 -5.334,1.005 -4.467,-1.799 0.91,-2.946 5.437,-3.159 7.86,-3.319 2.061,-0.137 -2.487,0.164 0,0 z"
           inkscape:connector-curvature="0"
           style="fill:#e2e9f6" /><path
           style="opacity:0.95;fill:#e2e9f6;fill-opacity:1"
           d="m -22.773766,112.65005 c 0,0 17.6055758,-14.019094 25.5148801,-13.941125 14.7760839,0.145662 0.826202,15.880605 32.2495089,18.399925 16.84355,1.35041 92.694497,-8.66744 92.694497,-8.66744 l 12.09984,31.5648 C 119.25122,148.57666 31.940987,141.15674 -21.981,141.732 Z"
           id="rect1318"
           inkscape:connector-curvature="0"
           sodipodi:nodetypes="csscccc" /></g><g
         id="g407"><path
           id="path399"
           d="m 30.154,45.629 c 4.315,-3.443 12.114,-4.583 15.479,0.534 -5.649,-6.517 -19.759,0.173 -11.506,3.692 -2.832,-1.79 -4.278,-1.687 -4.121,-3.668 -1.199,0.043 -2.055,-0.468 -2.567,-1.535 0.768,0.703 1.673,1.029 2.715,0.977 0,0 -0.985,0.085 0,0 z"
           inkscape:connector-curvature="0"
           style="fill:#b17666" /><path
           id="path401"
           d="m 74.205,49.228 c 0.6,-0.457 1.069,-1.085 1.117,-1.777 0.076,-1.096 -0.893,-2.041 -1.94,-2.655 -1.963,-1.15 -4.44,-1.618 -6.775,-1.278 -2.335,0.34 -4.523,1.448 -5.948,3.091 1.53,-2.325 4.491,-3.886 7.569,-3.992 3.079,-0.106 6.172,1.247 7.91,3.458 0.986,0.085 2.065,-0.329 2.716,-0.978 -0.335,0.977 -1.396,1.576 -2.568,1.535 0.272,1.722 -0.658,3.576 -2.356,4.493 0.3,-0.618 0.601,-1.236 0.899,-1.854 -0.69,0.624 -1.668,1.001 -2.664,1.029 0.716,-0.304 1.44,-0.615 2.04,-1.072 z"
           inkscape:connector-curvature="0"
           style="fill:#b17666" /><path
           id="path403"
           d="m 61.642,33.063 c -2.543,0.522 -5.063,1.213 -7.635,1.557 v 0.12 c -0.176,-0.017 -0.351,-0.035 -0.525,-0.055 -0.175,0.02 -0.35,0.038 -0.525,0.055 v -0.12 c -2.572,-0.344 -5.092,-1.035 -7.635,-1.557 -3.319,-0.681 -6.885,-1.062 -10.08,-0.023 1.929,-0.937 4.071,-1.507 6.28,-1.563 2.209,-0.056 4.411,0.196 6.601,0.447 1.787,0.205 3.573,0.41 5.36,0.614 1.787,-0.205 3.573,-0.41 5.359,-0.614 2.191,-0.251 4.393,-0.503 6.601,-0.447 2.208,0.056 4.351,0.626 6.279,1.563 C 68.526,32 64.96,32.382 61.642,33.063 Z"
           inkscape:connector-curvature="0"
           style="fill:#b17666" /><path
           id="path405"
           d="m 62.474,29.786 c -2.709,0.529 -5.395,1.233 -8.137,1.571 v 0.111 c -0.176,-0.015 -0.351,-0.032 -0.525,-0.051 -0.175,0.019 -0.35,0.036 -0.525,0.051 v -0.111 c -2.742,-0.338 -5.428,-1.042 -8.137,-1.571 -3.486,-0.681 -7.231,-1.062 -10.585,-0.024 2.026,-0.937 4.274,-1.507 6.595,-1.563 2.319,-0.056 4.631,0.196 6.932,0.447 1.907,0.208 3.814,0.417 5.721,0.625 1.907,-0.208 3.814,-0.416 5.722,-0.625 2.3,-0.251 4.612,-0.503 6.932,-0.447 2.319,0.056 4.569,0.626 6.594,1.563 -3.356,-1.039 -7.102,-0.658 -10.587,0.024 z"
           inkscape:connector-curvature="0"
           style="fill:#b17666" /></g></g></g><g
     id="g546"
     transform="translate(121.15073,27.1294)"><g
       id="g542"><g
         id="g540"><radialGradient
           gradientUnits="userSpaceOnUse"
           gradientTransform="matrix(0.0048,-3.962083e-4,3.963245e-4,0.0048,-45.5554,41.0367)"
           r="2.8345001"
           cy="47.186501"
           cx="40.0527"
           id="SVGID_1_"><stop
             id="stop413"
             style="stop-color:#78431B"
             offset="0.5719" /><stop
             id="stop415"
             style="stop-color:#76411B"
             offset="0.6823" /><stop
             id="stop417"
             style="stop-color:#6F3D1A"
             offset="0.7674" /><stop
             id="stop419"
             style="stop-color:#633618"
             offset="0.844" /><stop
             id="stop421"
             style="stop-color:#532C16"
             offset="0.9156" /><stop
             id="stop423"
             style="stop-color:#401F0F"
             offset="0.9832" /><stop
             id="stop425"
             style="stop-color:#3A1B0D"
             offset="1" /></radialGradient><circle
           id="circle428"
           r="2.8340001"
           cy="47.186001"
           cx="40.051998"
           style="fill:url(#SVGID_1_)" /><defs
           id="defs435"><filter
             height="5.5809999"
             width="5.5809999"
             y="44.395"
             x="37.257"
             filterUnits="userSpaceOnUse"
             id="Adobe_OpacityMaskFilter"><feFlood
               id="feFlood430"
               result="back" /><feBlend
               id="feBlend432"
               mode="normal"
               in2="back"
               in="SourceGraphic" /></filter></defs><mask
           id="mask468"
           height="5.581"
           width="5.581"
           y="44.395"
           x="37.257"
           maskUnits="userSpaceOnUse"><g
             id="g466"
             style="filter:url(#Adobe_OpacityMaskFilter)"><defs
               id="defs442"><filter
                 height="5.5809999"
                 width="5.5809999"
                 y="44.395"
                 x="37.257"
                 filterUnits="userSpaceOnUse"
                 id="Adobe_OpacityMaskFilter_1_"><feFlood
                   id="feFlood437"
                   result="back" /><feBlend
                   id="feBlend439"
                   mode="normal"
                   in2="back"
                   in="SourceGraphic" /></filter></defs><mask
               id="SVGID_2_"
               height="5.581"
               width="5.581"
               y="44.395"
               x="37.257"
               maskUnits="userSpaceOnUse"><g
                 id="g444"
                 style="filter:url(#Adobe_OpacityMaskFilter_1_)" /></mask><radialGradient
               gradientUnits="userSpaceOnUse"
               gradientTransform="matrix(0.0048,-3.962083e-4,3.963245e-4,0.0048,-45.5554,41.0367)"
               r="2.7902999"
               cy="47.185501"
               cx="40.047901"
               id="SVGID_3_"><stop
                 id="stop447"
                 style="stop-color:#FFFFFF"
                 offset="0" /><stop
                 id="stop449"
                 style="stop-color:#F8F8F8"
                 offset="0.0928" /><stop
                 id="stop451"
                 style="stop-color:#E4E4E4"
                 offset="0.2291" /><stop
                 id="stop453"
                 style="stop-color:#C4C4C4"
                 offset="0.3923" /><stop
                 id="stop455"
                 style="stop-color:#979797"
                 offset="0.5763" /><stop
                 id="stop457"
                 style="stop-color:#5D5D5D"
                 offset="0.7776" /><stop
                 id="stop459"
                 style="stop-color:#181818"
                 offset="0.9905" /><stop
                 id="stop461"
                 style="stop-color:#141414"
                 offset="1" /></radialGradient><circle
               id="circle464"
               r="2.79"
               cy="47.186001"
               cx="40.048"
               mask="url(#SVGID_2_)"
               style="fill:url(#SVGID_3_)" /></g></mask><radialGradient
           gradientUnits="userSpaceOnUse"
           gradientTransform="matrix(0.0048,-3.962083e-4,3.963245e-4,0.0048,-45.5554,41.0367)"
           r="2.7902999"
           cy="47.185501"
           cx="40.047901"
           id="SVGID_4_"><stop
             id="stop470"
             style="stop-color:#451212"
             offset="0" /><stop
             id="stop472"
             style="stop-color:#451516"
             offset="0.231" /><stop
             id="stop474"
             style="stop-color:#451E22"
             offset="0.5699" /><stop
             id="stop476"
             style="stop-color:#442933"
             offset="0.9736" /><stop
             id="stop478"
             style="stop-color:#432A34"
             offset="0.9947" /></radialGradient><circle
           id="circle481"
           r="2.79"
           cy="47.186001"
           cx="40.048"
           style="fill:url(#SVGID_4_)" /><defs
           id="defs488"><filter
             height="5.5819998"
             width="5.5809999"
             y="44.435001"
             x="37.266998"
             filterUnits="userSpaceOnUse"
             id="Adobe_OpacityMaskFilter_2_"><feFlood
               id="feFlood483"
               result="back" /><feBlend
               id="feBlend485"
               mode="normal"
               in2="back"
               in="SourceGraphic" /></filter></defs><mask
           id="mask517"
           height="5.582"
           width="5.581"
           y="44.435"
           x="37.267"
           maskUnits="userSpaceOnUse"><g
             id="g515"
             style="filter:url(#Adobe_OpacityMaskFilter_2_)"><defs
               id="defs495"><filter
                 height="5.5819998"
                 width="5.5809999"
                 y="44.435001"
                 x="37.266998"
                 filterUnits="userSpaceOnUse"
                 id="Adobe_OpacityMaskFilter_3_"><feFlood
                   id="feFlood490"
                   result="back" /><feBlend
                   id="feBlend492"
                   mode="normal"
                   in2="back"
                   in="SourceGraphic" /></filter></defs><mask
               id="SVGID_5_"
               height="5.582"
               width="5.581"
               y="44.435"
               x="37.267"
               maskUnits="userSpaceOnUse"><g
                 id="g497"
                 style="filter:url(#Adobe_OpacityMaskFilter_3_)" /></mask><radialGradient
               gradientUnits="userSpaceOnUse"
               gradientTransform="matrix(0.0048,-3.962083e-4,3.963245e-4,0.0048,-45.5554,41.0367)"
               r="2.7904999"
               cy="47.225601"
               cx="40.057098"
               id="SVGID_6_"><stop
                 id="stop500"
                 style="stop-color:#9E9E9E"
                 offset="0" /><stop
                 id="stop502"
                 style="stop-color:#979797"
                 offset="0.1333" /><stop
                 id="stop504"
                 style="stop-color:#838383"
                 offset="0.3289" /><stop
                 id="stop506"
                 style="stop-color:#636363"
                 offset="0.5629" /><stop
                 id="stop508"
                 style="stop-color:#363636"
                 offset="0.8244" /><stop
                 id="stop510"
                 style="stop-color:#141414"
                 offset="1" /></radialGradient><circle
               id="circle513"
               r="2.79"
               cy="47.226002"
               cx="40.056999"
               mask="url(#SVGID_5_)"
               style="fill:url(#SVGID_6_)" /></g></mask><radialGradient
           gradientUnits="userSpaceOnUse"
           gradientTransform="matrix(0.0048,-3.962083e-4,3.963245e-4,0.0048,-45.5554,41.0367)"
           r="2.7904999"
           cy="47.225601"
           cx="40.057098"
           id="SVGID_7_"><stop
             id="stop519"
             style="stop-color:#FCB017"
             offset="0" /><stop
             id="stop521"
             style="stop-color:#F7AC18"
             offset="0.427" /><stop
             id="stop523"
             style="stop-color:#EAA21C"
             offset="0.5808" /><stop
             id="stop525"
             style="stop-color:#DA931E"
             offset="0.6905" /><stop
             id="stop527"
             style="stop-color:#C47F1F"
             offset="0.7791" /><stop
             id="stop529"
             style="stop-color:#AA691E"
             offset="0.855" /><stop
             id="stop531"
             style="stop-color:#8C4F1A"
             offset="0.9222" /><stop
             id="stop533"
             style="stop-color:#6E3413"
             offset="0.9815" /><stop
             id="stop535"
             style="stop-color:#642B10"
             offset="1" /></radialGradient><circle
           id="circle538"
           r="2.79"
           cy="47.226002"
           cx="40.056999"
           style="fill:url(#SVGID_7_)" /></g></g><circle
       id="circle544"
       r="0.917"
       cy="47.185001"
       cx="40.056999"
       style="fill:#2b102a" /></g><g
     id="g681"
     transform="translate(121.15073,27.1294)"><g
       id="g677"><g
         id="g675"><radialGradient
           gradientUnits="userSpaceOnUse"
           gradientTransform="matrix(0.0048,-3.962083e-4,3.963245e-4,0.0048,-45.5554,41.0367)"
           r="2.8347001"
           cy="47.225601"
           cx="69.017097"
           id="SVGID_8_"><stop
             id="stop548"
             style="stop-color:#78431B"
             offset="0.5719" /><stop
             id="stop550"
             style="stop-color:#76411B"
             offset="0.6823" /><stop
             id="stop552"
             style="stop-color:#6F3D1A"
             offset="0.7674" /><stop
             id="stop554"
             style="stop-color:#633618"
             offset="0.844" /><stop
             id="stop556"
             style="stop-color:#532C16"
             offset="0.9156" /><stop
             id="stop558"
             style="stop-color:#401F0F"
             offset="0.9832" /><stop
             id="stop560"
             style="stop-color:#3A1B0D"
             offset="1" /></radialGradient><circle
           id="circle563"
           r="2.8340001"
           cy="47.226002"
           cx="69.016998"
           style="fill:url(#SVGID_8_)" /><defs
           id="defs570"><filter
             height="5.5809999"
             width="5.5809999"
             y="44.435001"
             x="66.222"
             filterUnits="userSpaceOnUse"
             id="Adobe_OpacityMaskFilter_4_"><feFlood
               id="feFlood565"
               result="back" /><feBlend
               id="feBlend567"
               mode="normal"
               in2="back"
               in="SourceGraphic" /></filter></defs><mask
           id="mask603"
           height="5.581"
           width="5.581"
           y="44.435"
           x="66.222"
           maskUnits="userSpaceOnUse"><g
             id="g601"
             style="filter:url(#Adobe_OpacityMaskFilter_4_)"><defs
               id="defs577"><filter
                 height="5.5809999"
                 width="5.5809999"
                 y="44.435001"
                 x="66.222"
                 filterUnits="userSpaceOnUse"
                 id="Adobe_OpacityMaskFilter_5_"><feFlood
                   id="feFlood572"
                   result="back" /><feBlend
                   id="feBlend574"
                   mode="normal"
                   in2="back"
                   in="SourceGraphic" /></filter></defs><mask
               id="SVGID_9_"
               height="5.581"
               width="5.581"
               y="44.435"
               x="66.222"
               maskUnits="userSpaceOnUse"><g
                 id="g579"
                 style="filter:url(#Adobe_OpacityMaskFilter_5_)" /></mask><radialGradient
               gradientUnits="userSpaceOnUse"
               gradientTransform="matrix(0.0048,-3.962083e-4,3.963245e-4,0.0048,-45.5554,41.0367)"
               r="2.7904999"
               cy="47.225101"
               cx="69.012703"
               id="SVGID_10_"><stop
                 id="stop582"
                 style="stop-color:#FFFFFF"
                 offset="0" /><stop
                 id="stop584"
                 style="stop-color:#F8F8F8"
                 offset="0.0928" /><stop
                 id="stop586"
                 style="stop-color:#E4E4E4"
                 offset="0.2291" /><stop
                 id="stop588"
                 style="stop-color:#C4C4C4"
                 offset="0.3923" /><stop
                 id="stop590"
                 style="stop-color:#979797"
                 offset="0.5763" /><stop
                 id="stop592"
                 style="stop-color:#5D5D5D"
                 offset="0.7776" /><stop
                 id="stop594"
                 style="stop-color:#181818"
                 offset="0.9905" /><stop
                 id="stop596"
                 style="stop-color:#141414"
                 offset="1" /></radialGradient><circle
               id="circle599"
               r="2.79"
               cy="47.224998"
               cx="69.013"
               mask="url(#SVGID_9_)"
               style="fill:url(#SVGID_10_)" /></g></mask><radialGradient
           gradientUnits="userSpaceOnUse"
           gradientTransform="matrix(0.0048,-3.962083e-4,3.963245e-4,0.0048,-45.5554,41.0367)"
           r="2.7904999"
           cy="47.225101"
           cx="69.012703"
           id="SVGID_11_"><stop
             id="stop605"
             style="stop-color:#451212"
             offset="0" /><stop
             id="stop607"
             style="stop-color:#451516"
             offset="0.231" /><stop
             id="stop609"
             style="stop-color:#451E22"
             offset="0.5699" /><stop
             id="stop611"
             style="stop-color:#442933"
             offset="0.9736" /><stop
             id="stop613"
             style="stop-color:#432A34"
             offset="0.9947" /></radialGradient><circle
           id="circle616"
           r="2.79"
           cy="47.224998"
           cx="69.013"
           style="fill:url(#SVGID_11_)" /><defs
           id="defs623"><filter
             height="5.5819998"
             width="5.5809999"
             y="44.474998"
             x="66.231003"
             filterUnits="userSpaceOnUse"
             id="Adobe_OpacityMaskFilter_6_"><feFlood
               id="feFlood618"
               result="back" /><feBlend
               id="feBlend620"
               mode="normal"
               in2="back"
               in="SourceGraphic" /></filter></defs><mask
           id="mask652"
           height="5.582"
           width="5.581"
           y="44.475"
           x="66.231"
           maskUnits="userSpaceOnUse"><g
             id="g650"
             style="filter:url(#Adobe_OpacityMaskFilter_6_)"><defs
               id="defs630"><filter
                 height="5.5819998"
                 width="5.5809999"
                 y="44.474998"
                 x="66.231003"
                 filterUnits="userSpaceOnUse"
                 id="Adobe_OpacityMaskFilter_7_"><feFlood
                   id="feFlood625"
                   result="back" /><feBlend
                   id="feBlend627"
                   mode="normal"
                   in2="back"
                   in="SourceGraphic" /></filter></defs><mask
               id="SVGID_12_"
               height="5.582"
               width="5.581"
               y="44.475"
               x="66.231"
               maskUnits="userSpaceOnUse"><g
                 id="g632"
                 style="filter:url(#Adobe_OpacityMaskFilter_7_)" /></mask><radialGradient
               gradientUnits="userSpaceOnUse"
               gradientTransform="matrix(0.0048,-3.962083e-4,3.963245e-4,0.0048,-45.5554,41.0367)"
               r="2.7904999"
               cy="47.265099"
               cx="69.022003"
               id="SVGID_13_"><stop
                 id="stop635"
                 style="stop-color:#9E9E9E"
                 offset="0" /><stop
                 id="stop637"
                 style="stop-color:#979797"
                 offset="0.1333" /><stop
                 id="stop639"
                 style="stop-color:#838383"
                 offset="0.3289" /><stop
                 id="stop641"
                 style="stop-color:#636363"
                 offset="0.5629" /><stop
                 id="stop643"
                 style="stop-color:#363636"
                 offset="0.8244" /><stop
                 id="stop645"
                 style="stop-color:#141414"
                 offset="1" /></radialGradient><circle
               id="circle648"
               r="2.79"
               cy="47.264999"
               cx="69.022003"
               mask="url(#SVGID_12_)"
               style="fill:url(#SVGID_13_)" /></g></mask><radialGradient
           gradientUnits="userSpaceOnUse"
           gradientTransform="matrix(0.0048,-3.962083e-4,3.963245e-4,0.0048,-45.5554,41.0367)"
           r="2.7904999"
           cy="47.265099"
           cx="69.022003"
           id="SVGID_14_"><stop
             id="stop654"
             style="stop-color:#FCB017"
             offset="0" /><stop
             id="stop656"
             style="stop-color:#F7AC18"
             offset="0.427" /><stop
             id="stop658"
             style="stop-color:#EAA21C"
             offset="0.5808" /><stop
             id="stop660"
             style="stop-color:#DA931E"
             offset="0.6905" /><stop
             id="stop662"
             style="stop-color:#C47F1F"
             offset="0.7791" /><stop
             id="stop664"
             style="stop-color:#AA691E"
             offset="0.855" /><stop
             id="stop666"
             style="stop-color:#8C4F1A"
             offset="0.9222" /><stop
             id="stop668"
             style="stop-color:#6E3413"
             offset="0.9815" /><stop
             id="stop670"
             style="stop-color:#642B10"
             offset="1" /></radialGradient><circle
           id="circle673"
           r="2.79"
           cy="47.264999"
           cx="69.022003"
           style="fill:url(#SVGID_14_)" /></g></g><circle
       id="circle679"
       r="0.917"
       cy="47.224998"
       cx="69.022003"
       style="fill:#2b102a" /></g><g
     id="g687"
     transform="translate(121.15073,27.1294)"><path
       id="path683"
       d="m 61.758,75.471 c -0.017,-0.196 -0.101,-0.378 -0.28,-0.422 -0.527,-0.208 -1.009,0.199 -1.458,0.458 -0.502,0.278 -0.874,0.786 -1.372,1.075 -0.435,0.319 -0.853,0.68 -1.332,0.911 -0.567,0.266 -2.335,0.643 -1.721,0.745 0.885,0.2 -1.785,0.312 -2.685,0.354 -1.257,0.146 -2.556,0.256 -3.775,-0.212 -0.762,-0.199 -1.397,-0.74 -2.032,-1.235 -0.538,-0.416 -0.902,-1.076 -1.497,-1.397 -0.284,-0.129 -0.537,-0.366 -0.847,-0.401 -0.071,0.38 0.259,0.632 0.358,0.967 0.537,0.791 1.16,1.51 1.828,2.153 0.281,0.277 0.514,0.63 0.84,0.841 0.643,0.331 1.353,0.389 2.034,0.554 0.864,0.134 1.738,0.14 2.607,0.12 1.729,0.057 3.458,-0.112 5.157,-0.479 0.533,-0.091 0.929,-0.538 1.353,-0.882 0.313,-0.431 0.743,-0.72 1.052,-1.157 0.478,-0.777 1.05,-1.518 1.77,-1.993 z"
       inkscape:connector-curvature="0"
       style="fill:#b17666" /><path
       id="path685"
       d="m 52.176,81.349 c 0.523,-0.096 1.052,-0.055 1.58,-0.031 0.678,0.096 1.362,0 2.042,0.048 0.212,0.017 0.451,0.115 0.565,0.337 0.094,0.381 0.195,0.786 0.072,1.172 -0.143,0.096 -0.276,0.223 -0.441,0.263 -0.771,0.12 -1.739,0.539 -2.513,0.544 -0.743,0.145 -1.304,-0.35 -2.047,-0.216 -0.222,0.044 -0.475,0.064 -0.665,-0.103 -0.309,-0.291 -0.667,-0.494 -0.991,-0.758 -0.2,-0.157 -0.454,-0.147 -0.67,-0.258 0.001,-0.068 0.003,-0.206 0.004,-0.272 0.234,-0.148 0.512,-0.138 0.761,-0.236 0.747,-0.273 1.531,-0.359 2.303,-0.49 z"
       inkscape:connector-curvature="0"
       style="fill:#b17666" /></g><g
     id="g693"
     transform="translate(121.15073,27.1294)"><path
       id="path689"
       d="m 46.41,56.678 c 0.012,-0.038 0.351,-0.798 1.54,-1.292 2.133,-0.886 2.332,-2.244 2.633,-5.484 0.209,-2.252 0.061,-4.451 0.059,-4.473 -0.022,-0.309 -0.281,-0.55 -0.59,-0.55 -0.013,0 -0.026,0.001 -0.041,0.002 -0.325,0.022 -0.571,0.305 -0.549,0.63 0.002,0.021 0.144,2.122 -0.057,4.282 -0.244,2.624 -0.872,4.206 -1.77,4.453 -1.911,0.527 -2.346,2.051 -2.364,2.115 -0.042,0.152 -0.021,0.312 0.057,0.449 l -0.386,1.273 c 0,1.687 1.373,3.06 3.06,3.06 0.826,0 1.594,-0.344 2.163,-0.92 1.117,1.612 2.751,1.665 2.937,1.665 h 0.007 c 0.185,0 1.822,-0.053 2.939,-1.664 0.569,0.576 1.337,0.919 2.163,0.919 1.688,0 3.06,-1.373 3.06,-3.06 0,-0.326 -0.266,-0.591 -0.591,-0.591 -0.325,0 -0.591,0.266 -0.591,0.591 0,0.756 -0.451,1.404 -1.096,1.702 0.05,-0.241 -0.569,-0.315 -1.243,-0.451 -0.211,-0.042 -0.708,-0.718 -0.903,-0.718 -0.743,0 -1.345,0.311 -1.739,0.899 -0.79,1.176 -1.952,1.19 -2.001,1.19 -0.049,0 -1.209,-0.014 -1.999,-1.19 -0.498,-0.743 -1.331,-1.041 -2.352,-0.835 -0.673,0.136 -1.205,0.442 -1.262,0.476 -0.224,0.132 -0.321,0.388 -0.271,0.629 -0.646,-0.297 -1.097,-0.946 -1.097,-1.702 z"
       inkscape:connector-curvature="0"
       style="fill:#b17666" /><path
       id="path691"
       d="m 58.265,55.386 c 1.25,0.344 1.528,1.253 1.538,1.289 0.071,0.255 0.305,0.434 0.57,0.434 0.053,0 0.105,-0.007 0.156,-0.021 0.152,-0.042 0.279,-0.14 0.357,-0.277 0.079,-0.137 0.053,-0.292 0.057,-0.449 0.021,-0.778 -1.572,-2.133 -2.365,-2.115 -0.595,0.013 -1.281,0.793 -1.525,-1.827 -0.199,-2.13 -0.307,-6.821 -0.301,-6.908 0.022,-0.324 -0.224,-0.608 -0.55,-0.63 -0.326,-0.022 -0.607,0.227 -0.63,0.547 -0.002,0.022 -0.122,2.209 0.059,4.475 0.369,4.596 1.187,5.083 2.634,5.482 z"
       inkscape:connector-curvature="0"
       style="fill:#b17666" /></g><g
     transform="matrix(2.1285883,0,0,1.3241101,89.641048,-11.492989)"
     id="g565"
     style="fill:#b67c6c;fill-opacity:1"><g
       id="g543"
       style="fill:#b67c6c;fill-opacity:1"><g
         id="g541"
         style="fill:#b67c6c;fill-opacity:1"><path
           inkscape:connector-curvature="0"
           d="m 85.462,142.605 c 5.08,6.775 -6.753,12.37 -10.964,12.583 5.676,-2.217 13.407,-6.386 10.964,-12.583 z"
           id="path525"
           style="fill:#b67c6c;fill-opacity:1" /><path
           inkscape:connector-curvature="0"
           d="m 92.53,130.849 c 0,6.301 -11.691,9.963 -16.12,7.232 2.843,1.748 6.437,2.629 9.053,4.523 -1.528,-1.695 -3.362,-2.9 -5.501,-3.614 21.309,0 13.914,-30.474 13.914,-44.76 -0.448,0 -0.897,0 -1.346,0 0,12.207 0,24.413 0,36.619 z"
           id="path527"
           style="fill:#b67c6c;fill-opacity:1" /><path
           inkscape:connector-curvature="0"
           d="m 86.322,121.235 c 5.228,0 11.291,1.562 15.809,4.153 5.966,3.422 4.511,11.476 12.211,12.847 -6.413,-5.912 26.339,-3.183 10.554,3.616 -4.565,1.967 -10.052,1.807 -14.732,0.365 -0.047,-0.015 -8.396,-3.942 -6.011,-4.614 2.413,-0.681 1.143,3.887 -3.144,3.887 -8.576,0 -1.953,-5.19 -1.953,-4.981 0,0.528 -11.134,9.013 -1.369,0.572 -4.052,4.829 9.529,5.228 7.103,1.226 2.804,6.332 17.61,5.864 21.796,1.87 4.183,-3.991 -4.164,-5.689 -6.269,-5.689 -8.666,0 -2.887,4.949 -2.086,4.35 -7.522,5.637 -11.684,-9.496 -14.714,-11.936 -1.937,-1.559 -19.117,-6.514 -19.117,-5.544 0,-4.673 -2.159,-27.185 2.007,-27.125 -0.03,9 -0.057,18.002 -0.085,27.003 z"
           id="path529"
           style="fill:#b67c6c;fill-opacity:1" /><path
           inkscape:connector-curvature="0"
           d="m 93.642,140.172 c 4.887,7.847 -18.469,9.114 -22.519,4.783 -7.864,5.691 17.253,11.022 22.732,7.781 -0.478,0.287 -4.751,-0.397 -4.751,-1.699 0,-3.668 12.82,-3.193 12.82,1.108 0,5.035 -12.799,5.126 -15.886,4.646 8.637,1.275 -4.716,8.561 -7.408,1.957 -2.249,14.026 -36.435,-1.354 -19.557,-5.297 2.482,-0.579 15.523,-1.927 15.523,2.773 0,4.376 -12.259,4.885 -12.259,1.959 0,-2.078 7.605,-0.746 3.976,2.141 -3.135,2.492 -7.76,3.569 -11.537,4.626 -3.914,1.095 -7.771,2.388 -11.569,3.833 -5.815,2.212 -9.649,-1.414 -15.811,-2.324 9.797,-5.561 20.978,-7.476 31.765,-10.175 3.271,-0.818 25.807,-6.389 18.131,-13.198 5.664,0.618 11.586,-0.45 16.773,-2.778 -0.822,0.162 -20.952,4.299 -20.952,1.039 0,2.152 6.761,1.789 4.337,6.189 -2.312,4.194 -9.415,5.814 -13.576,7.025 -12.995,3.783 -26.495,5.572 -38.472,12.368 4.06,0.533 9.881,1.465 13.029,4.435 5.669,-2.618 11.611,-4.687 17.622,-6.366 3.643,-1.021 8.252,-2.069 11.181,-4.624 3.81,-3.323 -6.223,-5.366 -6.223,-2.05 0,3.881 14.35,2.731 14.35,-2.052 0,-6.331 -17.121,-3.479 -20.145,-1.993 -9.989,4.912 7.37,9.893 10.951,9.893 3.37,0 7.009,-0.375 10.083,-1.887 0.246,-0.121 5.524,-4.057 2.407,-4.362 0.023,0.002 4.449,5.425 9.744,2.88 6.063,-2.914 -3.538,-5.083 -3.538,-4.105 0,1.799 21.941,0.433 17.468,-5.764 -5.523,-7.651 -19.396,2.273 -11.134,2.273 -3.55,0.687 -23.844,0.707 -20.382,-6.768 4.473,1.949 30.497,0.705 22.827,-6.267 z"
           id="path531"
           style="fill:#b67c6c;fill-opacity:1" /><path
           inkscape:connector-curvature="0"
           d="m 77.664,94.231 0,41.977 c 6.195,-0.843 11.861,1.018 16.689,3.681 -3.162,-4.062 -12.503,-2.135 -12.503,-6.335 v -17.356 c 0,-4.756 3.644,-24.226 -4.186,-21.967 z"
           id="path533"
           style="fill:#b67c6c;fill-opacity:1"
           sodipodi:nodetypes="cccssc" /><path
           inkscape:connector-curvature="0"
           d="m -9.739,131.503 c 0,6.442 8.054,7.958 12.974,7.958 -3.239,1.334 -5.238,4.329 -4.199,7.829 0.318,0.033 0.636,0.065 0.954,0.099 -1.496,-4.745 2.217,-7.053 6.005,-8.612 -14.204,0 -14.434,-6.558 -14.434,-17.885 0,-8.888 0,-17.774 0,-26.661 -0.433,0 -0.867,0 -1.3,0 0,12.424 0,24.849 0,37.272 z"
           id="path535"
           style="fill:#b67c6c;fill-opacity:1" /><path
           inkscape:connector-curvature="0"
           d="m -0.964,147.291 c 3.472,10.737 23.319,12.361 32.298,14.04 3.159,0.591 29.959,5.852 19.918,12.549 -3.897,2.6 -6.477,4.042 -10.343,2.407 -3.606,-1.524 -12.439,-4.167 -5.624,-8.443 11.566,-7.258 26.886,-7.43 39.534,-12.114 -10.668,0.323 -27.507,5.788 -37.78,10.662 -4.032,1.913 -8.39,5.238 -2.629,8.448 6.953,3.875 8.072,4.026 14.833,0.719 C 65.375,167.667 37.951,161.775 32.24,160.747 19.905,158.528 7.501,156.46 -0.964,147.291 Z"
           id="path537"
           style="fill:#b67c6c;fill-opacity:1" /><path
           inkscape:connector-curvature="0"
           d="M 5.534,94.231 4.4765265,136.208 C 0.68852653,134.287 -12.262,137.399 -7.319,143.842 c 4.217,5.496 18.112,4.72 22.507,0.217 6.351,11.924 -21.23,7.39 -21.319,7.53 0.44,-0.695 3.136,0.211 3.136,-1.376 0,-3.64 -9.142,-1.749 -10.552,-0.143 -4.684,5.335 10.886,5.239 12.262,5.023 -4.73,3.259 5.393,4.192 8.123,1.927 -4.814,10.468 31.014,7.166 24.096,-0.637 -3.498,-3.944 -13.899,-4.586 -17.568,-0.549 -3.913,4.304 10.138,6.943 10.138,3.149 0,-1.984 -4.753,-1.108 -4.753,0.954 0,3.19 10.885,3.839 12.836,4.103 5.143,0.698 10.643,1.955 15.121,4.7 4.384,2.688 8.457,-0.1 13.461,-1.534 -4.77,-3.194 -59.797,-15.048 -52.438,-24.115 -4.316,0.581 -8.702,0.305 -12.905,-0.858 -0.925,-0.255 -11.034,-5.925 -8.894,-6.021 3.282,-0.148 -1.238,4.121 -3.283,4.121 0.169,0 -6.86,-2.849 -3.55,-2.975 3.088,-0.118 -5.386,4.314 -5.811,4.396 -3.963,0.758 -11.051,1.122 -14.172,-2.193 -6.902,-7.332 17.813,-5.496 12.398,-2.151 7.244,-1.415 7.05,-8.286 12.087,-12.361 4.381,-3.545 13.533,-1.684 13.533,-6.981 v -16.939 c 0,0.014 -0.01,-9.788 1.804,-6.896 3.068,4.892 0,20.66 0,26.654 0,-1.655 -13.62,3.178 -15.324,5.322 -2.123,2.672 -2.939,6.157 -5.396,8.585 -1.222,1.208 -9.943,3.451 -9.694,2.936 0.873,-0.243 1.562,-0.773 2.067,-1.591 0,-3.721 -13.936,-1.677 -9.967,3.178 3.458,4.229 15.613,3.549 18.499,-1.198 0,2.872 7.478,2.45 7.204,-0.99 4.505,6.324 17.266,5.966 23.803,4.857 -10.925,5.448 13.066,13.18 15.591,13.794 12.3,2.992 26.16,3.807 36.819,11.296 -4.804,1.194 -9.555,2.83 -14.2,4.525 -4.152,-4.271 -11.088,-6.075 -16.754,-6.991 -4.132,-0.667 -10.37,-0.924 -13.698,-3.807 -3.464,-3.002 6.546,-5.331 6.546,-1.723 0,5.022 -18.279,0.66 -12.349,-3.884 3.74,-2.866 20.575,-4.266 20.575,3.064 0,7.289 -16.557,5.853 -20.465,4.932 -2.171,-0.511 -5.201,-1.423 -6.582,-3.389 -1.714,-2.439 2.422,-3.986 2.422,-2.774 0,2.88 -9.193,1.925 -10.204,1.544 -4.158,-1.567 0.373,-4.955 2.109,-3.898 -1.625,-0.988 -15.964,4.04 -15.964,-3.021 0,-8.02 19.079,-1.778 12.566,0.471 3.187,0.562 21.396,1.004 17.471,-6.483 -3.413,1.638 -29.664,3.664 -22.862,-6.209 C -3.047,131.012 1.6,140.17 1.6,128.602 v -25.211 c 10e-4,-4.013 -2.186,-10.878 3.934,-9.16 z"
           id="path539"
           style="fill:#b67c6c;fill-opacity:1"
           sodipodi:nodetypes="cccccscccccssccccccccccccsccccccccccccccccscsccsccscccscc" /></g></g><g
       id="g563"
       style="fill:#b67c6c;fill-opacity:1"
       transform="matrix(1,0,0,1.0200187,0,-1.8929846)"><g
         id="g561"
         style="fill:#b67c6c;fill-opacity:1"><path
           inkscape:connector-curvature="0"
           d="m 85.462,45.654 c 5.08,-6.775 -6.755,-12.372 -10.964,-12.583 5.675,2.217 13.407,6.386 10.964,12.583 z"
           id="path545"
           style="fill:#b67c6c;fill-opacity:1" /><path
           inkscape:connector-curvature="0"
           d="m 92.53,57.411 c 0,-6.303 -11.688,-9.958 -16.12,-7.232 2.837,-1.752 6.438,-2.631 9.053,-4.524 -1.528,1.695 -3.362,2.9 -5.501,3.616 21.31,0 13.914,30.472 13.914,44.76 -0.448,0 -0.897,0 -1.346,0 0,-12.207 0,-24.414 0,-36.62 z"
           id="path547"
           style="fill:#b67c6c;fill-opacity:1" /><path
           inkscape:connector-curvature="0"
           d="m 86.322,67.026 c 5.229,0 11.291,-1.563 15.809,-4.155 5.965,-3.422 4.511,-11.475 12.211,-12.846 -6.413,5.913 26.338,3.183 10.554,-3.617 -4.565,-1.966 -10.052,-1.806 -14.732,-0.365 -0.047,0.014 -8.398,3.94 -6.011,4.615 2.406,0.681 1.15,-3.887 -3.144,-3.887 -8.576,0 -1.953,5.191 -1.953,4.981 0,-0.527 -11.133,-9.015 -1.369,-0.572 -4.052,-4.831 9.529,-5.228 7.103,-1.226 2.806,-6.332 17.609,-5.866 21.796,-1.871 4.183,3.991 -4.164,5.691 -6.269,5.691 -8.665,0 -2.888,-4.952 -2.086,-4.351 -7.522,-5.636 -11.684,9.498 -14.714,11.936 -1.937,1.559 -19.117,6.514 -19.117,5.545 0,4.672 -2.159,27.184 2.007,27.125 -0.03,-9 -0.057,-18.002 -0.085,-27.003 z"
           id="path549"
           style="fill:#b67c6c;fill-opacity:1" /><path
           inkscape:connector-curvature="0"
           d="m 93.642,48.088 c 4.882,-7.854 -18.471,-9.114 -22.519,-4.783 -7.87,-5.709 17.26,-11.017 22.732,-7.783 -0.478,-0.287 -4.751,0.397 -4.751,1.698 0,3.669 12.82,3.194 12.82,-1.108 0,-5.035 -12.799,-5.126 -15.886,-4.645 8.637,-1.279 -4.717,-8.557 -7.408,-1.957 -2.25,-14.029 -36.434,1.355 -19.557,5.296 2.482,0.58 15.523,1.927 15.523,-2.773 0,-4.375 -12.259,-4.886 -12.259,-1.957 0,2.075 7.606,0.745 3.976,-2.142 -3.135,-2.492 -7.76,-3.57 -11.537,-4.626 -3.914,-1.095 -7.771,-2.388 -11.569,-3.833 -5.814,-2.212 -9.65,1.412 -15.811,2.324 9.797,5.561 20.978,7.475 31.765,10.174 3.271,0.818 25.806,6.39 18.131,13.199 5.664,-0.618 11.585,0.451 16.773,2.778 -0.819,-0.161 -20.952,-4.297 -20.952,-1.038 0,-2.153 6.761,-1.789 4.337,-6.188 C 75.138,36.528 68.035,34.909 63.874,33.697 50.879,29.913 37.379,28.125 25.402,21.328 c 4.06,-0.533 9.881,-1.463 13.029,-4.434 5.669,2.618 11.611,4.687 17.622,6.367 3.643,1.02 8.252,2.068 11.181,4.623 3.811,3.324 -6.223,5.368 -6.223,2.051 0,-3.882 14.35,-2.732 14.35,2.052 0,6.33 -17.121,3.479 -20.145,1.993 -9.989,-4.911 7.371,-9.892 10.951,-9.892 3.37,0 7.009,0.375 10.083,1.887 0.246,0.121 5.524,4.057 2.407,4.362 0.022,-0.002 4.449,-5.424 9.744,-2.879 6.062,2.913 -3.538,5.083 -3.538,4.105 0,-1.8 21.941,-0.431 17.468,5.763 -5.525,7.652 -19.396,-2.273 -11.134,-2.273 -3.55,-0.686 -23.844,-0.707 -20.382,6.768 4.473,-1.95 30.497,-0.708 22.827,6.267 z"
           id="path551"
           style="fill:#b67c6c;fill-opacity:1" /><path
           inkscape:connector-curvature="0"
           d="m 77.664,94.03 c 0,-13.992 0,-27.985 0,-41.977 6.194,0.843 11.861,-1.016 16.689,-3.681 -3.162,4.062 -12.503,2.133 -12.503,6.334 0,5.786 0,11.571 0,17.357 0,4.755 3.644,24.226 -4.186,21.967 z"
           id="path553"
           style="fill:#b67c6c;fill-opacity:1" /><path
           inkscape:connector-curvature="0"
           d="m -9.739,56.757 c 0,-6.442 8.054,-7.958 12.974,-7.958 -3.237,-1.333 -5.24,-4.33 -4.199,-7.829 0.318,-0.033 0.636,-0.066 0.954,-0.099 -1.497,4.745 2.217,7.054 6.005,8.612 -14.204,0 -14.434,6.559 -14.434,17.886 0,8.887 0,17.774 0,26.661 -0.433,0 -0.867,0 -1.3,0 0,-12.425 0,-24.849 0,-37.273 z"
           id="path555"
           style="fill:#b67c6c;fill-opacity:1" /><path
           inkscape:connector-curvature="0"
           d="M -0.964,40.97 C 2.508,30.232 22.355,28.608 31.334,26.929 34.493,26.338 61.293,21.077 51.252,14.38 47.355,11.781 44.775,10.338 40.909,11.972 37.303,13.496 28.47,16.139 35.285,20.415 46.852,27.674 62.171,27.842 74.819,32.53 64.157,32.214 47.308,26.739 37.039,21.867 33.007,19.954 28.649,16.63 34.41,13.42 41.363,9.546 42.482,9.394 49.243,12.701 65.375,20.593 37.951,26.486 32.24,27.513 19.906,29.73 7.5,31.798 -0.964,40.97 Z"
           id="path557"
           style="fill:#b67c6c;fill-opacity:1" /><path
           inkscape:connector-curvature="0"
           d="m 5.534,94.03 c 0,-14.205 0,-28.41 0,-42.614 -3.788,1.921 -17.797,-0.555 -12.853,-6.999 4.218,-5.497 18.111,-4.72 22.507,-0.216 6.351,-11.924 -21.229,-7.389 -21.319,-7.531 0.44,0.695 3.136,-0.211 3.136,1.376 0,3.639 -9.142,1.749 -10.552,0.143 -4.683,-5.335 10.886,-5.239 12.262,-5.023 -4.73,-3.277 5.4,-4.186 8.123,-1.928 -4.814,-10.466 31.014,-7.167 24.096,0.637 -3.498,3.945 -13.899,4.585 -17.568,0.549 -3.913,-4.303 10.138,-6.943 10.138,-3.149 0,1.984 -4.753,1.108 -4.753,-0.955 0,-3.189 10.886,-3.839 12.836,-4.104 5.143,-0.697 10.643,-1.954 15.121,-4.699 4.385,-2.688 8.456,0.102 13.461,1.534 C 55.396,24.248 0.373,36.095 7.73,45.167 3.414,44.585 -0.971,44.862 -5.175,46.025 c -0.927,0.256 -11.03,5.926 -8.894,6.021 3.287,0.146 -1.245,-4.12 -3.283,-4.12 0.169,0 -6.86,2.848 -3.55,2.974 3.088,0.118 -5.386,-4.314 -5.811,-4.396 -3.963,-0.757 -11.051,-1.122 -14.172,2.194 -6.906,7.336 17.815,5.485 12.398,2.151 7.244,1.417 7.05,8.286 12.087,12.361 4.381,3.545 13.533,1.684 13.533,6.981 0,5.646 0,11.293 0,16.939 0,-0.013 -0.009,9.789 1.804,6.897 3.068,-4.892 0,-20.66 0,-26.654 0,1.655 -13.62,-3.178 -15.324,-5.323 -2.123,-2.672 -2.939,-6.158 -5.396,-8.586 -1.222,-1.208 -9.942,-3.449 -9.694,-2.936 0.873,0.243 1.562,0.773 2.067,1.591 0,3.72 -13.935,1.676 -9.967,-3.178 3.458,-4.229 15.613,-3.55 18.499,1.199 0,-2.87 7.478,-2.449 7.204,0.99 4.504,-6.325 17.266,-5.966 23.803,-4.858 -10.927,-5.447 13.067,-13.18 15.591,-13.794 12.3,-2.992 26.16,-3.806 36.819,-11.295 -4.804,-1.196 -9.555,-2.831 -14.2,-4.527 -4.151,4.273 -11.088,6.076 -16.754,6.992 -4.132,0.667 -10.37,0.924 -13.698,3.808 -3.464,3.001 6.546,5.331 6.546,1.722 0,-5.022 -18.279,-0.66 -12.349,3.885 3.74,2.866 20.575,4.265 20.575,-3.065 0,-7.29 -16.556,-5.854 -20.465,-4.933 -2.171,0.512 -5.201,1.424 -6.582,3.39 -1.714,2.439 2.422,3.985 2.422,2.775 0,-2.88 -9.193,-1.926 -10.204,-1.544 -4.158,1.568 0.373,4.955 2.109,3.899 -1.625,0.988 -15.964,-4.042 -15.964,3.021 0,8.016 19.08,1.781 12.566,-0.471 3.188,-0.561 21.396,-1.005 17.471,6.484 -3.412,-1.637 -29.663,-3.666 -22.862,6.208 5.801,8.422 10.449,-0.737 10.449,10.832 0,8.404 0,16.808 0,25.211 0.002,4.012 -2.185,10.879 3.935,9.16 z"
           id="path559"
           style="fill:#b67c6c;fill-opacity:1" /></g></g></g><text
     xml:space="preserve"
     style="font-style:normal;font-weight:normal;font-size:37.17834854px;line-height:1.25;font-family:sans-serif;letter-spacing:0px;word-spacing:0px;fill:#000000;fill-opacity:1;stroke:none;stroke-width:0.92945874"
     x="115.90115"
     y="153.21272"
     id="text204"
     transform="scale(0.92945872,1.075895)"><tspan
       sodipodi:role="line"
       id="tspan202"
       x="115.90115"
       y="153.21272"
       style="font-style:normal;font-variant:normal;font-weight:normal;font-stretch:normal;font-size:37.17866898px;font-family:Papyrus;-inkscape-font-specification:'Papyrus, Normal';font-variant-ligatures:normal;font-variant-caps:normal;font-variant-numeric:normal;font-feature-settings:normal;text-align:start;writing-mode:lr-tb;text-anchor:start;opacity:0.95;fill:#ffffff;fill-opacity:1;stroke-width:0.92945874">Socrates</tspan></text>
</svg>